<?xml version="1.0" encoding="UTF-8"?><svg id="a" xmlns="http://www.w3.org/2000/svg" viewBox="0 0 246.75 237.8"><defs><style>.b{fill:#d99c8b;}</style></defs><path class="b" d="M123.55,49.3c.67-.67,1.34-1.34,2.03-1.96,.8-2.25,1.49-4.56,2.02-6.97,.83-5.5,.87-11.67-.62-18.25-.57-2.48-1.29-4.78-2.12-6.92l-.02-.02c-2.1-4.83-6.47-8.97-6.47-8.97,3.63,6.28,5.8,12.75,6.51,19.3,.96,9.06-1.03,16.59-3.98,23.86,.97-.05,1.88-.07,2.65-.07Z"/><path class="b" d="M108.28,229.29c.12-.16,.27-.32,.39-.48-9.38-8.58-16.13-28.94-16.13-51.99,0-3.4,.14-6.72,.42-9.96,10.72-7.66,18.96-16.24,23.93-24.5,.57-.92,1.08-1.86,1.56-2.78,.02,.02,.02,.04,.04,.05,.02-.07,.05-.12,.09-.19-.9-.92-1.82-1.96-2.69-3.2-3.86,8.28-11.78,17.44-22.39,25.6-.67,.51-1.34,1.04-2.05,1.54-.65,.48-1.33,.97-2,1.43-2.67,1.86-5.5,3.66-8.42,5.36-25.72,14.84-53.17,17.74-61.15,6.72v-.02c-.69-.83-.88-1.45-.88-1.45-.44-.85-.76-1.75-.99-2.69-.25-1.04-.37-2.14-.37-3.29,0-2,.37-4.12,1.08-6.37,.04-.09,.05-.19,.09-.28,.39-1.2,.88-2.42,1.47-3.66,.02-.04,.02-.05,.02-.05,5.29-11.23,18.03-24.11,34.81-33.8,2.95-1.68,5.89-3.24,8.84-4.62,.76-.35,1.5-.69,2.25-1.03,.8-.34,1.59-.69,2.39-1.01,6.65-2.76,13.18-4.7,19.21-5.75,.32-.05,.64-.11,.97-.18,1.8-.3,3.59-.51,5.29-.64h.09c.69-.07,1.36-.11,2.03-.14-.71-1.22-1.27-2.48-1.75-3.7-1.66,.11-3.38,.28-5.13,.55-.07,.02-.14,.04-.27,.05-1.19,.25-4.74,.9-5.52,1.04-.09,.02-.14,.04-.14,.04-6.17,1.4-12.72,3.64-19.42,6.7-2.95-1.4-5.89-2.94-8.84-4.63-19.37-11.18-33.36-26.6-36.69-38.83-.04-.09-.05-.19-.07-.28-1.01-3.87-.96-7.41,.37-10.4,.21-.64,.78-1.49,.78-1.49,.51-.83,1.15-1.59,1.88-2.28,2.69-2.55,6.7-4.12,11.62-4.72h.02c.14-.02,.27-.04,.41-.05h.02c.34-.03,.67-.07,1.01-.09,.07-.02,.11-.02,.11-.02,12.35-.97,29.79,3.63,46.49,13.27,2.92,1.7,5.75,3.48,8.42,5.36,.51,.35,1.03,.73,1.52,1.1,.58-1.52,1.26-2.85,1.93-4-.25-2.95-.35-6.01-.35-9.09,0-29.61,11.14-54.75,24.59-56.3,0,0,.55-.05,1.7-.05h.21c.94,.05,1.88,.21,2.78,.48,8.65,2.58,16.11,14.88,19.9,31.5,1.33-.69,2.49-1.24,3.48-1.66-1.06-4.63-2.42-8.93-4-12.79,.09,.11,.21,.21,.32,.34,3.63,3.64,7.54,6.9,11.5,9.78,1.7-.46,3.41-.83,5.11-1.15-.64-.39-1.27-.8-1.89-1.2-3.18-2.09-5.93-4.07-8.15-5.77-3.63-2.92-7.22-6.14-10.72-9.69-2.99-3.02-5.93-6.3-8.76-9.84l.25,.02,2,.18h.04c.32,.03,.64,.07,.94,.11,.27,.04,.55,.05,.8,.09,.19,.04,.37,.05,.57,.09,.07,0,.16,.02,.25,.02,.41,.05,.81,.11,1.19,.18h.14s.07,.02,.12,.02c.05,.02,.09,.02,.14,.04,.14,.02,.27,.04,.41,.05,.12,.02,.27,.03,.39,.07,.27,.02,.55,.07,.8,.11,.55,.09,1.06,.18,1.59,.27,.8,.12,1.59,.28,2.37,.44,.41,.09,.8,.14,1.19,.23,.39,.09,.78,.16,1.17,.25l.21,.04c.05,.02,.12,.03,.19,.05,.12,.04,.27,.05,.39,.09,.27,.07,.51,.12,.78,.18,.12,.04,.25,.05,.39,.09,.32,.07,.62,.16,.94,.23,.04,0,.07,.02,.11,.04,.05,0,.09,.02,.12,.02,.07,.02,.12,.04,.19,.04,.05,.02,.12,.05,.18,.05,.44,.11,.88,.21,1.31,.34,.48,.12,.94,.25,1.42,.37,.51,.16,1.01,.3,1.52,.44,.27,.07,.51,.14,.76,.23,.25,.07,.5,.14,.76,.23,.39,.11,.76,.23,1.15,.35,.05,.02,.12,.04,.19,.05,.05,.02,.12,.04,.19,.07l.12,.04c.05,.02,.09,.04,.14,.05,.16,.03,.32,.09,.48,.14,.25,.09,.51,.18,.76,.26h.04s.05,.02,.07,.02c.04,.04,.05,.04,.11,.04,.46,.16,.92,.32,1.38,.5,.46,.16,.92,.32,1.38,.49,1.56,.57,3.11,1.19,4.67,1.84,.44,.18,.88,.37,1.34,.57,.28,.12,.58,.25,.88,.39,.16,.07,.3,.14,.46,.19,.44,.21,.87,.41,1.33,.6,.73,.35,1.45,.69,2.19,1.06,.14,.05,.28,.14,.42,.21,.87,.42,1.73,.88,2.6,1.33,.41,.23,.85,.46,1.27,.69,.28,.14,.55,.3,.85,.48,.23,.12,.48,.25,.73,.41,.32,.16,.64,.35,.96,.55,.55,.3,1.11,.64,1.65,.97,.5,.27,.97,.57,1.47,.88,.25,.16,.51,.32,.78,.48,.34,.21,.67,.44,1.01,.65,.73,.46,1.47,.96,2.19,1.45,.58,.41,1.19,.81,1.77,1.22,.23,.16,.46,.34,.69,.51,.05,.04,.09,.07,.16,.11,.25,.19,.51,.37,.78,.57,.21,.16,.42,.3,.64,.46,.09,.07,.19,.16,.3,.23,.04,.02,.04,.04,.05,.04,.02,.02,.04,.04,.05,.05,.11,.07,.21,.14,.3,.23,.37,.27,.73,.53,1.06,.8,.18,.14,.35,.28,.51,.42,.19,.14,.37,.27,.53,.41,.42,.34,.85,.69,1.27,1.03,.21,.18,.42,.34,.62,.53,.23,.18,.42,.34,.64,.53,.07,.04,.16,.12,.23,.18,.09,.07,.18,.14,.23,.21,.14,.12,.3,.25,.42,.35h.02c3.24,.85,6.1,1.88,8.61,2.99-.28-.28-.55-.55-.83-.81-.88-.87-1.79-1.72-2.71-2.55-.39-.37-.8-.72-1.2-1.1-.83-.73-1.65-1.45-2.49-2.16-.42-.35-.83-.71-1.26-1.04-.44-.35-.87-.69-1.29-1.04-1.91-1.52-3.89-3.01-5.91-4.4-.44-.3-.88-.6-1.34-.92-.21-.14-.44-.3-.67-.46-.69-.46-1.36-.9-2.05-1.33-.69-.44-1.38-.88-2.09-1.31-.5-.3-.97-.58-1.47-.88-.25-.16-.51-.3-.76-.44-2.25-1.29-4.55-2.53-6.86-3.68-.27-.12-.53-.25-.8-.37-.53-.28-1.08-.53-1.63-.8-.25-.11-.48-.21-.73-.34-.3-.12-.6-.25-.88-.39-.23-.11-.48-.21-.71-.32-.25-.11-.51-.23-.8-.34-.27-.12-.53-.23-.8-.35-.27-.11-.53-.21-.8-.32-.27-.12-.55-.23-.8-.34-.28-.11-.55-.21-.81-.32v-.02c-.28-.11-.53-.2-.81-.3-.27-.11-.53-.21-.81-.32-.27-.11-.53-.21-.81-.3-.55-.19-1.1-.39-1.65-.58-.53-.19-1.1-.39-1.63-.57-.04-.04-.05-.04-.09-.05-.51-.16-1.04-.34-1.57-.51h-.04c-.8-.25-1.59-.51-2.41-.74-.32-.11-.64-.2-.96-.3-.55-.14-1.08-.3-1.63-.44-.85-.23-1.68-.44-2.55-.67-.27-.05-.57-.14-.85-.2-1.04-.27-2.12-.51-3.2-.73-.35-.07-.73-.16-1.08-.23-2.02-.41-4.05-.76-6.07-1.06-.37-.05-.74-.11-1.11-.16-.3-.04-.62-.09-.97-.14l-1.66-.2c-.57-.07-1.13-.12-1.7-.18-1.13-.14-2.26-.23-3.4-.32-.19,0-.39-.02-.58-.03-1.04-.07-2.09-.12-3.15-.18-1.68-.05-3.36-.11-5.06-.11-2.03,0-4.1,.05-6.16,.18-1.26,.07-2.49,.14-3.75,.25-.41,.03-.8,.07-1.19,.11-.09,0-.16,0-.25,.02-1.2,.12-2.42,.23-3.61,.39-.12,.02-.23,.03-.34,.05-.74,.09-1.49,.18-2.23,.3-2.3,.34-4.58,.74-6.85,1.2-.53,.11-1.08,.23-1.63,.35-.3,.07-.58,.12-.88,.19-.25,.05-.48,.11-.71,.16-2.02,.48-4.02,1.01-6,1.59-5.93,1.73-11.69,3.93-17.25,6.55-.78,.35-1.54,.74-2.3,1.11-.76,.39-1.5,.76-2.26,1.17-.62,.34-1.24,.65-1.84,1.01-.88,.48-1.75,.96-2.62,1.47-.97,.55-1.93,1.13-2.87,1.72-2.32,1.45-4.56,2.97-6.76,4.55-.71,.49-1.38,1.01-2.07,1.52-1.01,.78-2.02,1.56-3.01,2.37-.67,.53-1.33,1.08-1.98,1.63h-.02c-.28,.25-.57,.48-.85,.73-1.98,1.72-3.91,3.5-5.78,5.34-.19,.19-.39,.39-.58,.58s-.39,.39-.58,.58l-.3,.3c-.19,.19-.39,.39-.57,.58-.05,.05-.11,.11-.16,.14-.05,.05-.11,.11-.14,.16-.57,.6-1.13,1.2-1.7,1.82-.57,.6-1.11,1.22-1.66,1.84-1.24,1.4-2.46,2.83-3.63,4.3-.25,.3-.48,.62-.74,.92-1.7,2.16-3.31,4.37-4.86,6.65-.71,1.03-1.4,2.09-2.07,3.13-2.02,3.15-3.89,6.4-5.59,9.75-.57,1.11-1.13,2.23-1.65,3.34-.25,.51-.48,1.01-.71,1.5-.23,.49-.44,1.01-.67,1.5-.32,.76-.64,1.5-.96,2.26-.32,.76-.62,1.52-.92,2.28-.3,.74-.58,1.52-.87,2.28-.39,1.03-.74,2.05-1.08,3.08-1.03,3.06-1.93,6.16-2.69,9.27-.16,.64-.32,1.26-.44,1.88-.3,1.26-.57,2.53-.8,3.78-.12,.53-.21,1.04-.32,1.59-.09,.53-.18,1.06-.27,1.61-.14,.8-.27,1.61-.39,2.41-.07,.53-.14,1.08-.21,1.63-.07,.53-.14,1.06-.21,1.61-.25,2.16-.44,4.33-.57,6.53-.04,.55-.07,1.1-.09,1.65-.09,1.91-.14,3.84-.14,5.77,0,12.68,1.96,25.01,5.84,36.85,.16,.51,.34,1.04,.51,1.57,.37,1.04,.74,2.09,1.13,3.13,.19,.49,.39,1.03,.58,1.54,.19,.51,.41,1.04,.62,1.56,.11,.25,.21,.51,.32,.78,.64,1.54,1.31,3.08,2.03,4.58,.23,.51,.46,1.03,.71,1.52,.55,1.12,1.1,2.23,1.68,3.33,1.73,3.33,3.64,6.58,5.7,9.73,.67,1.04,1.38,2.07,2.07,3.1,2.26,3.24,4.65,6.33,7.16,9.3,.37,.42,.74,.85,1.1,1.26,.18,.21,.37,.42,.55,.64,.55,.62,1.1,1.22,1.66,1.82,.19,.21,.39,.42,.58,.64,.57,.6,1.13,1.19,1.7,1.79,.32,.32,.64,.64,.96,.94,.88,.9,1.77,1.77,2.69,2.62,.23,.21,.46,.44,.69,.64,.39,.37,.78,.72,1.17,1.08,.28,.25,.58,.51,.87,.76,.04,.03,.09,.09,.14,.12,.3,.27,.58,.53,.88,.78,.3,.27,.6,.51,.9,.76,.23,.21,.46,.39,.69,.58,.21,.18,.44,.37,.67,.55,.23,.2,.44,.37,.69,.57,.28,.23,.55,.44,.85,.67,.11,.09,.19,.16,.3,.25,.25,.19,.51,.39,.76,.6,.46,.34,.9,.69,1.36,1.03,.23,.18,.46,.34,.69,.51,.34,.25,.67,.49,1.01,.74,.69,.49,1.36,.97,2.07,1.45,.69,.48,1.38,.96,2.07,1.42,.04,0,.04,.02,.07,.04,.67,.44,1.36,.88,2.05,1.33,.35,.21,.71,.44,1.06,.65,.32,.2,.62,.39,.94,.57,.39,.25,.81,.49,1.22,.72,.27,.16,.53,.32,.81,.48,.21,.12,.44,.25,.65,.39,.04,0,.07,.04,.11,.05,.35,.2,.71,.39,1.04,.58,.04,.02,.07,.04,.12,.05,.28,.16,.57,.32,.85,.48,.27,.14,.55,.28,.81,.42,.3,.16,.6,.32,.88,.48,3.41,1.77,6.93,3.36,10.51,4.81,.34,.12,.69,.27,1.04,.39,.16,.07,.34,.14,.5,.21,.35,.12,.67,.25,1.01,.37,1.54,.58,3.1,1.11,4.65,1.63,.27,.09,.53,.18,.78,.25,.78,.27,1.57,.49,2.37,.73,.35,.11,.71,.21,1.08,.32,.28,.09,.58,.16,.88,.25,.23,.07,.44,.12,.67,.18,.55,.16,1.08,.3,1.63,.44,.35,.07,.69,.16,1.03,.25,.57,.14,1.13,.27,1.72,.41,.25,.05,.5,.12,.76,.18,.53,.12,1.06,.23,1.59,.34,.3,.07,.6,.12,.88,.18,1.26,.27,2.51,.5,3.79,.71,.32,.05,.65,.11,.99,.16,.27,.04,.53,.09,.81,.12,.14,.02,.27,.04,.41,.05,1.36-1.01,2.6-2.02,3.71-3.01,.04-.05,.09-.09,.14-.12,.02-.02,.04-.04,.04-.05,1.36-1.2,2.53-2.41,3.52-3.54h.02Zm-25.44-55.95c2.16-1.24,4.23-2.51,6.23-3.82-.14,2.37-.19,4.83-.19,7.31,0,14.82,2.49,28.23,6.76,38.6-1.24-1.15-4.49-4.16-9.36-7.84-.04-.04-.07-.07-.12-.12-3.15-2.44-6.44-4.71-9.82-6.81-.18-.09-.34-.19-.51-.32-8.4-5.25-18.91-10.52-30.53-13.46,11.25-1.4,24.43-5.94,37.55-13.53Zm-29.58-58.18c2.14,1.24,4.3,2.39,6.44,3.47-2.14,1.08-4.3,2.23-6.44,3.49-12.84,7.41-23.19,16.29-30.05,25.15,.48-2,1.8-8.01,2.6-16.26,.02-.18,.04-.35,.05-.53,0-.23,.04-.44,.05-.67,.05-.48,.09-.96,.12-1.45,.85-10.93,.67-25.12-3.29-38.97,6.85,9.06,17.39,18.18,30.51,25.77Zm35.61-54.71c0,2.48,.05,4.9,.19,7.29-2-1.31-4.07-2.6-6.23-3.82-12.82-7.41-25.7-11.94-36.79-13.44,1.45-.42,5.09-1.59,9.99-3.57,.05-.02,.14-.05,.21-.07,4.28-1.72,8.49-3.66,12.56-5.87,.07-.02,.12-.05,.18-.07,8.76-4.65,18.57-11.11,26.9-19.72-4.4,10.47-7.02,24.15-7.02,39.29Zm-61.7-11.87c.11-.14,.21-.27,.32-.39,.55-.73,1.11-1.45,1.7-2.16,.5-.58,.97-1.19,1.49-1.77,.07-.11,.14-.21,.25-.32,.09-.11,.18-.21,.27-.32l.04-.04s.02-.02,.04-.04c.05-.05,.09-.11,.14-.16,.04-.05,.09-.11,.14-.18,.18-.21,.39-.42,.57-.64,.28-.32,.57-.65,.85-.97,.58-.65,1.17-1.27,1.79-1.91l.39-.44c.16-.16,.3-.32,.44-.46,.42-.44,.87-.88,1.29-1.31,.16-.18,.32-.34,.48-.49,.16-.16,.32-.32,.5-.48,1.1-1.1,2.21-2.16,3.34-3.18,.12-.11,.25-.21,.35-.3,.05-.05,.11-.11,.18-.16,.32-.3,.65-.6,.99-.88,.32-.3,.67-.58,1.01-.87l.09-.09c.18-.14,.35-.3,.51-.44,.35-.28,.71-.57,1.04-.87,.19-.14,.35-.28,.55-.42,.04-.05,.07-.07,.11-.11,.05-.04,.11-.09,.14-.11,.09-.09,.19-.16,.28-.23s.16-.12,.23-.19c.23-.18,.42-.34,.65-.49,.19-.18,.41-.34,.64-.5,.11-.09,.19-.16,.3-.25,.04-.02,.05-.05,.09-.07,.04-.04,.07-.05,.11-.07,.04-.04,.09-.07,.12-.11,.02-.02,.05-.04,.07-.05,.11-.09,.23-.18,.34-.27,.12-.09,.25-.18,.35-.27,.39-.28,.78-.58,1.17-.87l.32-.21c.07-.05,.14-.12,.23-.18,.27-.19,.55-.39,.81-.6,.37-.25,.73-.51,1.08-.74l.07-.03s.07-.05,.09-.07c.02-.02,.02-.04,.05-.04,.78-.55,1.54-1.06,2.33-1.57,.04-.04,.09-.05,.12-.07,.64-.42,1.27-.85,1.91-1.24,.09-.04,.16-.09,.25-.14,.02-.02,.07-.03,.09-.07,.04-.02,.07-.02,.11-.05,.41-.25,.83-.51,1.26-.76,.41-.25,.83-.49,1.24-.74,.39-.21,.76-.44,1.13-.65,.76-.42,1.52-.85,2.26-1.26,.19-.11,.39-.19,.58-.3,.18-.11,.37-.19,.57-.3,.18-.09,.35-.18,.53-.27,.16-.09,.34-.16,.5-.27,1.03-.53,2.05-1.03,3.08-1.52,.39-.19,.8-.37,1.2-.55,.48-.21,.96-.44,1.43-.64,.5-.23,.97-.44,1.47-.65,.11-.05,.23-.09,.35-.14,.19-.07,.37-.16,.55-.23,.19-.09,.37-.16,.55-.21,.37-.16,.71-.3,1.08-.44,.48-.19,.96-.37,1.43-.57,.07-.04,.16-.05,.23-.09,.09-.04,.16-.05,.23-.09,.12-.03,.25-.09,.37-.14,.12-.05,.27-.11,.37-.14,.5-.18,.99-.37,1.49-.53,.25-.09,.5-.18,.76-.27,.25-.09,.5-.16,.74-.27,.76-.25,1.5-.5,2.26-.73,1.01-.32,2.03-.62,3.06-.92,.25-.07,.51-.14,.76-.21,.18-.05,.34-.11,.51-.14,.09-.02,.18-.05,.25-.07,.16-.04,.3-.07,.44-.12,.37-.09,.74-.18,1.11-.27,.53-.14,1.04-.27,1.56-.39,.34-.09,.67-.18,1.01-.25,.28-.07,.55-.14,.83-.18,1.1-.27,2.19-.49,3.29-.69,.73-.16,1.45-.28,2.18-.41,.57-.09,1.11-.2,1.66-.27,.55-.09,1.11-.18,1.66-.25l1.49-.21c.09,0,.18-.02,.28-.02,.39-.05,.8-.11,1.2-.16h.02c1.04-.14,2.07-.23,3.1-.32-2.64,3.29-5.36,6.37-8.12,9.2t-.02,.02c-3.7,3.79-7.46,7.2-11.29,10.28-2.55,1.96-5.8,4.3-9.66,6.72-5.93,3.78-13.28,7.78-21.74,11.16-8.49,3.36-18.08,6.09-28.46,7.2-.6,.05-1.19,.12-1.79,.18,.05-.09,.12-.18,.19-.27ZM10.94,159.68c-.11-.25-.19-.51-.3-.76-.28-.78-.55-1.54-.83-2.3-.09-.27-.18-.51-.27-.76-.07-.27-.16-.51-.25-.76-.27-.78-.51-1.56-.76-2.32-.16-.53-.3-1.04-.48-1.56-.07-.27-.14-.53-.21-.8-.16-.51-.3-1.04-.44-1.56-.05-.19-.11-.39-.16-.58-.02-.05-.04-.11-.04-.16-.07-.23-.12-.48-.19-.73-.04-.12-.05-.25-.09-.37-.09-.3-.16-.62-.23-.92l-.05-.21c-.07-.28-.12-.53-.19-.8-.19-.81-.37-1.59-.53-2.39-.12-.51-.21-1.03-.32-1.54-.04-.07-.04-.16-.04-.25-.19-.87-.35-1.73-.51-2.6-.12-.81-.25-1.63-.37-2.44-.05-.28-.09-.55-.12-.83-.07-.41-.12-.81-.16-1.22-.04-.18-.05-.35-.09-.53-.02-.23-.05-.5-.07-.73-.05-.37-.11-.74-.14-1.11-.02-.12-.02-.25-.04-.37-.02-.11-.04-.25-.04-.37-.02-.11-.04-.23-.05-.35,0-.12-.02-.25-.04-.37-.05-.6-.11-1.24-.16-1.84-.02-.25-.05-.46-.05-.69-.02-.23-.04-.48-.05-.69-.04-.57-.07-1.1-.09-1.63-.04-.55-.07-1.08-.09-1.63,0-.27-.02-.53-.02-.78-.02-.21-.02-.42-.02-.62-.02-.42-.04-.83-.04-1.24-.02-.21-.02-.42-.02-.62-.02-.55-.02-1.1-.02-1.65,0-2.46,.09-4.94,.23-7.38,.04-.25,.04-.51,.05-.78,.02-.23,.04-.46,.05-.67,0-.19,.02-.37,.05-.55,0-.18,.02-.35,.04-.55,.02-.12,.04-.23,.04-.37,.04-.46,.09-.9,.12-1.33,.02-.16,.04-.32,.04-.44,.05-.39,.09-.76,.12-1.15,.05-.48,.12-.96,.18-1.43,.5-3.84,1.17-7.62,2.03-11.37,.07-.27,.12-.53,.18-.8,.07-.26,.14-.53,.21-.8,0-.05,.02-.09,.04-.14,0-.05,.02-.11,.04-.16,.07-.34,.16-.67,.25-1.01,.14-.48,.25-.96,.39-1.42,.05-.23,.12-.46,.19-.69,.05-.25,.12-.48,.19-.71,.02-.07,.04-.12,.04-.18,.04-.05,.04-.11,.07-.18,.02-.11,.05-.21,.09-.34,.04-.14,.07-.28,.12-.41,0-.04,.04-.09,.04-.14,.02-.05,.05-.11,.05-.16,.07-.27,.18-.53,.25-.8,.09-.28,.16-.55,.25-.81,.27-.87,.55-1.7,.83-2.55,.37-1.04,.74-2.09,1.13-3.11,.12-.35,.27-.69,.39-1.04,.18-.44,.35-.88,.53-1.31,.11-.27,.19-.51,.32-.76l.16-.42c.05-.12,.11-.25,.16-.39,.05-.11,.11-.25,.16-.37,.12-.27,.21-.51,.34-.76,.02,.02,.02,.04,.04,.05l1.27-2.87s.02,.02,.02,.05c1.52,3.89,2.81,7.75,3.89,11.55,1.45,5.11,2.49,10.12,3.25,14.96,.44,3.31,.83,7.45,1.03,12.17,.55,13.99-.87,33.29-9.22,52.24-.25,.53-.5,1.1-.78,1.66-.46-1.1-.88-2.21-1.31-3.31Zm89.22,72.52c-.81-.12-1.61-.28-2.41-.41-.3-.05-.6-.12-.92-.18-.21-.05-.44-.07-.67-.12-.67-.14-1.34-.27-2-.41-.25-.07-.5-.11-.73-.16-.25-.07-.48-.11-.73-.16-.35-.07-.73-.18-1.08-.25-.81-.19-1.63-.41-2.42-.62-.27-.05-.53-.12-.8-.21-.07-.02-.12-.04-.19-.05-.65-.16-1.31-.35-1.95-.53-.23-.07-.48-.14-.71-.21-1.43-.42-2.87-.88-4.28-1.36-1.06-.35-2.1-.73-3.17-1.13-.35-.12-.69-.27-1.04-.39-1.31-.51-2.64-1.03-3.93-1.59-.25-.11-.5-.21-.73-.3-.14-.07-.27-.12-.39-.18-.19-.09-.39-.19-.6-.27-.18-.09-.39-.18-.58-.28-.04,0-.07-.02-.09-.04-.11-.04-.19-.07-.3-.12-.04-.04-.11-.05-.16-.09-.39-.16-.78-.35-1.17-.53-.44-.21-.88-.42-1.31-.64-.87-.42-1.75-.87-2.62-1.33-.44-.21-.87-.44-1.29-.67-.42-.23-.87-.48-1.27-.71-.44-.25-.87-.48-1.29-.73-.76-.42-1.52-.88-2.25-1.33-.16-.09-.34-.18-.5-.28-.76-.46-1.5-.94-2.26-1.41-.81-.51-1.61-1.04-2.41-1.59t-.04-.02s-.02-.02-.02-.02c-.18-.11-.34-.23-.51-.35-.23-.16-.46-.3-.69-.46-.39-.28-.8-.57-1.19-.85-.69-.49-1.36-.99-2.05-1.5,0-.02-.04-.04-.04-.04-.28-.2-.51-.39-.78-.58-.57-.44-1.13-.87-1.7-1.33-.19-.14-.37-.3-.57-.48-.3-.23-.62-.48-.92-.73-.3-.25-.6-.49-.9-.76-.02,0-.04-.02-.04-.02-.02,0-.02-.02-.02-.04-.58-.48-1.15-.96-1.7-1.45-.19-.16-.37-.32-.55-.48-.04-.04-.11-.11-.18-.16-.05-.04-.12-.11-.18-.16-.07-.05-.12-.11-.19-.18-.09-.07-.19-.16-.27-.23-.23-.21-.44-.41-.65-.6-.21-.2-.42-.39-.64-.6-.14-.12-.27-.23-.41-.35-.39-.37-.78-.74-1.17-1.11-.19-.2-.37-.37-.55-.55-.05-.04-.07-.05-.11-.09s-.05-.07-.09-.09c-.12-.12-.23-.25-.35-.37-.11-.11-.23-.21-.35-.34-.11-.11-.23-.23-.34-.35-.12-.11-.23-.21-.34-.35-.07-.05-.11-.09-.16-.14-.19-.2-.37-.39-.57-.58-.07-.07-.12-.14-.18-.19-.19-.21-.41-.41-.58-.6-.18-.18-.35-.39-.53-.58-.14-.12-.25-.25-.35-.35-.23-.25-.46-.51-.69-.76-.02-.04-.04-.05-.07-.09-.05-.07-.12-.12-.18-.18-.05-.07-.11-.12-.18-.18-.04-.07-.09-.12-.16-.19-.04-.07-.09-.12-.14-.19h-.02c-.05-.07-.11-.12-.18-.18-.04-.07-.11-.14-.16-.19-.28-.32-.55-.64-.81-.94-.07-.09-.14-.16-.19-.23-.16-.18-.32-.34-.46-.53-.14-.16-.3-.35-.44-.51v-.02c-.19-.21-.37-.44-.57-.67-.42-.53-.87-1.04-1.29-1.59-.14-.18-.28-.35-.42-.53-.19-.25-.39-.48-.57-.72-.25-.32-.5-.64-.73-.96-.21-.27-.39-.51-.58-.76v-.02l-1.8-2.49h.04c4.16,.64,8.14,1.45,11.98,2.42,5.15,1.29,10.01,2.86,14.58,4.63,2.95,1.22,6.56,2.87,10.54,4.95t.04,.02c12.45,6.49,28.73,17.42,41.09,34.35,.35,.46,.69,.96,1.03,1.42-1.19-.14-2.37-.32-3.56-.5Z"/><path class="b" d="M66.59,146.43c-6.81,.6-13.74,1.22-20.63,3.38-5.18,2.05-10.56,5.11-15.5,9.68-1.24,1.15-2.37,2.32-3.41,3.5-1.04,1.17-1.98,2.34-2.83,3.5-1.03,1.82-1.82,3.86-2.37,5.48-.55,1.61-.85,2.81-.87,2.92,.14-.25,.28-.48,.41-.71,3.56-5.96,7.94-10.83,13.05-14.56,9.34-6.79,18.91-8.26,28.94-9.22,1.47-.14,2.92-.27,4.37-.39,6.79-.62,13.73-1.22,20.63-3.4,5.18-2.03,10.54-5.09,15.5-9.68,3.25-3.01,5.78-6.17,7.77-9.18-.27-.78-.5-1.57-.71-2.41-3.15,4.58-6.85,8.4-11.06,11.48-9.34,6.77-18.87,8.24-28.9,9.2-1.49,.12-2.94,.27-4.39,.39Z"/><path class="b" d="M78.55,100.92c-2.76-3.01-5.18-6.26-7.57-9.62-.87-1.2-1.72-2.41-2.55-3.61-3.93-5.57-7.92-11.27-13.25-16.17-4.21-3.34-9.34-6.39-15.51-8.39-.19-.05-.39-.12-.6-.19-.46-.14-.9-.27-1.36-.39-.05-.02-.09-.02-.14-.04-6.58-1.57-15.83-.09-15.83-.09v.02c6.95,.09,13.41,1.43,19.23,4.02,10.54,4.69,16.59,12.24,22.43,20.47,.83,1.2,1.68,2.37,2.53,3.57,3.93,5.59,7.91,11.3,13.25,16.17,.6,.48,1.22,.96,1.86,1.43,1.8-.41,3.41-.71,4.53-.88-2.62-1.91-4.9-4.03-7-6.3Z"/><path class="b" d="M120.22,178.18c.97-2.12,1.96-4.25,2.9-6.4-.07-3.08-.21-6.14-.41-9.15-1.19,3.68-2.71,7.24-4.35,10.79v-.04c-.58,1.34-1.22,2.69-1.84,4.02-2.87,6.19-5.8,12.49-7.38,19.55-.65,4.39-.81,9.18-.11,14.27,1.31,7.09,4.79,9.73,4.79,9.73-.97-3.02-1.63-6.07-1.96-9.13-1.2-11.5,2.3-20.52,6.49-29.68v.04c.62-1.34,1.26-2.67,1.86-4Z"/><path class="b" d="M130.1,101.28s-.01,.01-.03,.02c-.25,.21-.5,.42-.65,.55-.02,.02-.04,.03-.06,.05-1.3,1.26-2.21,2.9-2.77,4.61-.01,.07-.04,.14-.04,.15-.45,1.41-.54,3.05-.51,4.54,0,0,.03,1.03,.26,2.52h.03c.36,1.97,1.01,3.88,1.76,5.74,.04,.11,.08,.21,.12,.31,1.41,3.16,3.6,6.9,5.54,9.46,.95,2.18,2,4.3,3.39,6.24h.01c.03,.05,.04,.07,.06,.08,.98,1.34,2.16,2.64,3.64,3.43,1.23,.82,2.89,1.07,4.33,.79,2.93-.53,5.28-3.25,6.46-5.71-3.83,4.23-9.34,4.78-12.45-.15-1.87-2.41-2.56-5.43-4.54-7.79-1.54-2.32-2.99-4.8-4.09-7.37-.07-.15-.13-.29-.2-.43-2.42-5.43-3-13.11,3.11-16.2,2.17-1.1,4.22-.49,6.61,.81,0,0-3.52-5.82-9.98-1.63Z"/><path class="b" d="M149.87,38s-.03,0-.04,.01h.02s.03-.01,.03-.01Z"/><path class="b" d="M197.14,119.74l-1.31-.72c2.42,3.09,11.04,5.5,16.19,4.21,5.56-14-20.62-6.13-21.89-4.07,2.86-.98,19.6-6.58,21.02,3.05-7.9,.86-13.94-2.43-14-2.48Z"/><path class="b" d="M214.84,152.09c1-.15,2.4-.19,4.22,.32-1.39-.83-7.15-2.55-7.05-1.47-.36,1.62,1.5,1.5,2.83,1.15Z"/><path class="b" d="M215.51,144.59c-4.16-.7-10.73,.22-6.86,7.04,0,0-2.44-6.87,6.86-7.04Z"/><path class="b" d="M144.72,109.36c-8.8-8.91-15.72,.14-10.2,10.31,.01-.01,.01-.02,0-.03,0-.04-.06-.33-.06-.44,0-.07-.02-.15-.03-.23-.24-1.76-.36-3.82-.15-5.74,.21-1.42,.59-2.62,1.03-3.58,4.59-5.72,11.23,1.92,3.99,6.01-5.8,4.45,5.54,9.99,7.83,12.03-4.72-5.12-5.09-7.9-4.44-9.47,2.39-3.06,5.83-4.99,2.03-8.87Z"/><path class="b" d="M147.13,127.7c.11,.12,.21,.23,.33,.36-.06-.1-.18-.22-.33-.36Z"/><path class="b" d="M134.46,119.19h0s0,.08,.01,.11c0-.03,0-.07-.01-.11Z"/><path class="b" d="M217.4,119.14c3.55-9.17-5.23-11.21-13.95-9.4-5.47,1.2-11.81,3.56-17.77,5.88,9.01-2.93,31.47-9.43,31.72,3.53Z"/><path class="b" d="M245,88.14c5-7.95-.97-16.21-.97-16.21,.29-3.76-.5-8.95-4.18-12.98-.49-.53-1.02-1.05-1.6-1.52-1.23-1.03-2.71-1.93-4.47-2.68-2.37-5.26-6.29-8.44-10.53-10.3-.06-.02-.1-.04-.16-.07-4.01-1.65-8.3-2.15-11.93-2.41h-.09s0,0-.01,0c-.7-.05-1.37-.11-2.04-.14l.53,.14h0l-.52-.14-.29-.08-.09-.02h0c-9.07-5-30.43-14.27-58.73-3.74-.02,0-.04,.02-.07,.02-2.16,.76-13.89,5.25-24.2,16.45-3.34-.25-20.27-.78-25.47,13.81,0,0-11.48,10.53-2.6,28.27,0,0-1.17,19.49,16.19,20.59,2.07,8.17,4.1,16.29,11.75,21.49,3.56,30.64,7.25,69.77-14.08,94.8-.02,.03-.05,.05-.07,.09-.02,.02-.05,.05-.07,.07-.14,.18-.3,.35-.48,.53-.02,.05-.05,.09-.11,.14-.02,.02-.04,.04-.05,.05-.02,.02-.04,.05-.05,.07-.18,.18-.34,.37-.5,.55-.06,.06-.12,.14-.18,.2,.15-.16,.3-.33,.44-.49-.54,.58-1.12,1.2-1.66,1.77,0,0,0,0,0,0h0l-.02,.02h0l-.02,.02h0c-.09,.11-.19,.21-.28,.3h0v.02c-.06,.03-.09,.07-.12,.1h0c.19,.02,.39,.04,.6,.05h.02s.07,0,.1,0c.18,.02,.37,.03,.55,.04,.01,0,.03,0,.04,0,.16,0,.3,.02,.44,.04,.09,0,.16,0,.25,.02,.3,.02,.62,.04,.94,.05,.14,0,.27,.02,.41,.02,.48,.02,.94,.05,1.42,.07h.11c.18,.02,.37,.02,.55,.02,.81,.04,1.63,.05,2.42,.09h.02c.78,0,1.54,.02,2.3,.02h.41c.35,0,.71-.02,1.06-.02,.55,0,1.11-.02,1.66-.04,.18,0,.37,0,.55-.02,.39,0,.81-.02,1.22-.04,.41-.02,.81-.04,1.24-.05,1.24-.07,2.48-.14,3.71-.25,.64-.05,1.26-.12,1.89-.2,28.2-2.78,54.08-15.37,73.48-35.47,.02,0,.02-.02,.04-.04-.01,.01-.02,.03-.03,.04,.02-.02,.04-.05,.07-.08,.02-.02,.04-.05,.07-.07l.09-.09c.49-.52,.98-1.05,1.46-1.57,.26-.29,.53-.56,.79-.85,.07-.08,.14-.16,.21-.24,.28-.31,.56-.62,.84-.93,.35-.41,.69-.8,1.04-1.2,.02-.02,.02-.03,.04-.05,.06-.06,.11-.11,.15-.17,.14-.16,.28-.34,.42-.5,.2-.24,.41-.47,.62-.71,.18-.21,.34-.41,.51-.62,.07-.09,.14-.16,.19-.25,.04-.04,.07-.08,.1-.13,.07-.08,.14-.16,.21-.25,.03-.03,.06-.07,.08-.11l.22-.26c.35-.44,.7-.89,1.05-1.34,.22-.28,.45-.56,.67-.85,.05-.06,.09-.13,.14-.19,.28-.36,.55-.73,.82-1.1,.03-.04,.06-.08,.09-.12,.34-.44,.65-.88,.99-1.34,.18-.23,.34-.46,.51-.69,.05-.08,.09-.14,.14-.22l.02-.03h0c-.55-.37-1.14-.77-1.71-1.17-.24-.17-.48-.33-.71-.5h0s.02-.06,.02-.06l-.57-.41s-.02,.03-.04,.03h0c-.5-.31-.99-.66-1.4-.99-.51-.25-.93-.7-1.38-.99v-.06c1.96-2.42,2.89-5.75,1.52-8.66,2-1.27,5.13-4.57,4.01-7.66,5.5-1.63,5.86-4.2,5.51-9.12,1.18-.08,4.7-.39,5.56-3.5,.55-3.4-2.67-21.74-2.67-21.74,0,3.28,.89,11.35,1.06,14.44,.61,6.47-.38,9.19-7.4,8.41,.71,2.1,1.4,3.49,.45,5.48-8.68-2.31-9.87,3.28-22.65-.82,3.62,4.14,10.94,4,16.86,6.12,.78,2.24,.11,3.55-1.7,5.07-.01,0-.01,.01-.01,.01-3.97,3.38-11.41-3.76-13.57-5.88,1.51,3.72,6.05,8.5,11.13,9.67,3.72,8.73-9.6,12.19-15.78,12.25-20.17,3.74-44.57-28.19-46.45-33.03,8.61,24.37,35.17,44.54,59.94,32.97v-.02c.78-.56,1.5-1.13,2.15-1.72,.91,.84,1.93,1.63,2.99,2.31h0c-.42,.59-.88,1.17-1.33,1.76-.12,.14-.23,.28-.34,.42-.16,.19-.32,.39-.46,.58-.07,.09-.14,.18-.21,.27-.58,.72-1.17,1.45-1.79,2.16-18.59,22.04-44.58,36.23-73.29,39.84-.55,.07-1.11,.14-1.66,.2-.18,.02-.34,.05-.51,.05-.04,0-.04,.02-.05,.02-.62,.07-1.24,.12-1.86,.18h-.02c-.28,.02-.58,.05-.88,.07-.92,.09-1.8,.16-2.72,.2-.12,.02-.23,.02-.35,.02h-.25c-.5,.04-.97,.07-1.47,.09-.32,0-.65,.02-.97,.04-.46,.02-.94,.02-1.42,.04h-.88c-.07,0-.14,0-.21,.02h-.07c19.35-23.01,11.85-67.38,9.36-93.19,2.58,1.04,5.63,1.72,9.22,1.8-3.36-1.91-12.47-3.64-18.11-17.21-.97-3.2-1.73-5.8-2.3-8.03,0-.02-.01-.04-.02-.07l.1,.28c3.35,3.31,7.87,2.18,7.87,2.18-5.83-1.66-8.58-7.62-9.63-10.63h0c-.35-2.86-.37-5.21-.53-8.58-.02-.14-.02-.3-.04-.46v-.02c2.47,2.74,7.94,2.75,7.94,2.75-5.61-1.6-7.45-5.32-8.06-7.35v-.21c0-6.56,.8-16.13,5.48-26.02,.19-.4,.38-.81,.6-1.21v.03c-.63,2.45-1.04,7.04-.69,12.97,0,.05,0,.09,0,.14-.02,0-.04,0-.06-.02-.09-.03-.19-.08-.29-.12-.72-.33-1.43-.84-2.15-1.55,.68,.88,1.4,1.51,2.17,1.95,.08,.06,.17,.1,.26,.14,2.81,1.45,6.11,.3,9.09-1.27,.37-.19,.75-.39,1.11-.6,.06-.02,.1-.06,.16-.09,3.56-1.89,7.46-3.94,11.54-3.25,.15,.02,.29,.05,.44,.08,.59,.12,1.14,.32,1.66,.56,3.41,1.58,5.49,5.32,9.05,7.04,.81,.43,1.67,.78,2.56,1.03,.58,.18,1.17,.32,1.77,.42,3.49,.58,7.21-.03,10.29-1.62,.76-.37,1.48-.77,2.18-1.17,.56-.34,1.12-.68,1.66-1.02,1.39-.84,2.7-1.66,4.03-2.32,2.04-1.1,4.27-1.63,6.46-1.59,.49,.01,.97,.04,1.45,.1,2.51,.34,4.91,1.42,6.87,3.26,.51,.46,1.02,.93,1.51,1.38,.19,.17,.37,.34,.56,.5,1.82,1.59,3.67,2.96,5.92,3.72,.31,.1,.62,.19,.94,.27,.89,.22,1.84,.34,2.87,.34,1.16-.01,2.34-.16,3.5-.42,.63-.14,1.26-.32,1.88-.53-1.36,2.75-2.93,5.42-5.36,7.25h0c-4.9,2.32-9.35,3-12.71,.96-2.41-1.57-5.09-3.77-8.08-4.59-3.12-.98-6.47-1.17-9.67-.46-4.35,.95-8.35,3.97-12.53,4.54-4.11,.65-8.37-.61-11.7-3.13-3.93-3.14-7.77-6.05-13.01-3.48-4.2,1.93-6.87,6.35-11.74,5.35-1.42-.27-2.78-.97-3.95-1.9,1.06,1.05,2.36,1.91,3.84,2.36,1.48,.42,3.14,.44,4.62-.11,5.13-2.11,9.82-7.73,15.41-3.21,2.23,1.72,4.52,3.99,7.47,5.35,2.93,1.37,6.24,1.93,9.47,1.51,6.14-.77,10.67-5.14,16.83-4.61,4.5,.12,7.79,2.58,11.45,5.06,.81,.51,1.68,.88,2.58,1.14-2.13,1.23-4.1,2.97-5.65,4.62-3.08,3.14-7.64,2.91-11.43,1.2-2.78-1.15-5.42-2.63-8.83-2.59-3.26-.07-6.7,1.38-10.17,2.26-7.21,1.83-9.81-1.49-14-5.35,3.63,5.42,6.65,9.19,14.67,7,3.01-.82,5.9-1.81,8.95-1.58,4.72,.16,8.42,3.46,13.09,4.26,3.47,.55,7.35-.47,9.83-2.93,1.23-1.12,2.2-2.15,3.37-2.95,2.93-2.19,6.7-3.03,10.31-4.04,1.88-.71,3.51-1.82,4.97-3.16h0c.46-.43,.9-.88,1.33-1.36,.46-.52,.85-1.07,1.23-1.63,.43-.64,.83-1.3,1.18-1.96,.22-.41,.43-.82,.64-1.22h0c.61-1.21,1.17-2.36,1.78-3.32,1.97-2.69,4.98-3.83,8.21-4.7,1.38-.36,2.78-.68,4.16-1.04,1.16-.32,2.29-.65,3.38-1.08h0c.32,.83,.65,1.68,.97,2.55,5.13,13.97,7.69,27.42,1.17,37.5,5.64-6.78,5.32-12.28,5.18-18.61h.02v-.02h-.02v-.02h.02v.02c1.01-.02,1.91-.12,2.71-.3-.11,.02-.21,.04-.34,.05-.14,.04-.3,.05-.46,.07-.25,.04-.51,.05-.76,.07-.31,.01-.65,.01-.99,.01,1.25,0,2.36-.13,3.32-.38,.19-.04,.37-.1,.56-.16,6.86-2.17,6.28-10.11,5.44-11.13v-.03ZM109.37,235.71s.07-.08,.11-.11c-.03,.04-.07,.08-.1,.11h0Zm-.69,.72h0Zm-.01,.01h0ZM216.67,44.77c-.39-.09-.8-.16-1.21-.23,.41,.06,.81,.14,1.21,.23Zm-5.34-.51s.08,0,.12,0c-.04,0-.07,0-.11,0h0Zm2.66,.1c-.17-.01-.33-.03-.51-.04,.17,.01,.34,.03,.51,.04Zm-4.43-1.53c.19,.24,.38,.47,.58,.71,.07,.08,.14,.17,.21,.25-.07-.08-.14-.17-.21-.25-.19-.25-.39-.48-.58-.72-.25-.3-.51-.62-.78-.92-.01-.01-.02-.03-.03-.04,.01,.02,.03,.03,.04,.04,.26,.3,.52,.62,.78,.93ZM117.69,116.79v0h0Zm-6.05-29.81c-.41,7.84-.41,14.33,1.19,25.22-14.4-2.21-14.65-21.35-3.52-25.49-4.51,.65-7.62,3.31-9.38,5.34-5.61-9.94,7.57-16.27,9.92-16.27-5.06-.48-8.86,1.68-11.27,3.71,1.88-5.13,1.88-13.2,17.87-12.63-.87-.53-5.11-3.11-10.77-.88,3.64-5.36,10.22-8.08,16.65-7.55-5.43,7.18-9.04,16.91-10.68,28.55Zm9.44-6.1s0-.06,0-.1c.15-3.86,.85-8.36,2.64-13.09,3.13-8.29,8.05-14.15,12.69-18.2,.95-.75,1.86-1.42,2.75-2.03,0-.02,.02-.02,.02-.02t.02-.02s.04-.02,.05-.03c2.28-1.58,4.37-2.76,6.05-3.64,.87-.46,1.82-.9,2.83-1.36,.02,0,.02-.02,.04-.02,.04-.02,.09-.04,.13-.06-8.16,5.86-14.43,14.39-16.98,24.13-1.05,3.85-1.56,7.87-1.54,11.89-2.85,1.85-5.81,3.48-8.71,2.55Zm13.02-5.22c-.93,.47-1.88,1.08-2.84,1.71,1.54-13.35,8.36-25.8,20-33.31,5.32-3.51,11.2-5.55,17.3-6.5,3.53-.28,10.1-.72,17.33,.2h.04s.02,0,.03,0c-20.06-1.17-40.4,13.73-42.95,34.15-.08,.55-.15,1.11-.2,1.65-3.04-.24-6.22,.67-8.71,2.1Zm84.21,2.34c-1.17,.3-2.33,.74-3.45,1.28-.4,.16-.81,.32-1.2,.5h-.01c-.9,.56-1.82,1.08-2.73,1.55h0c-1.01,.52-2.02,.97-3.03,1.36-1.92,.64-3.53,.87-4.99,.79,.02-.03,.04-.07,.06-.1,4.16-6.43,10.47-10.82,18.06-13.96-8.57-.08-15.96,5.95-19.54,13.58-.04,.09-.07,.18-.11,.26-.34-.08-.69-.15-1.02-.26-1.99-.7-3.75-2.09-5.73-3.94,.36-.76,.73-1.5,1.14-2.24,4.1-7.51,11.25-12.64,19.46-14.96-9.83-.32-18.83,6.92-21.78,16.09-2.16-2.06-4.79-3.39-7.57-3.97,1.69-3.23,3.75-6.22,6.31-8.83,4.67-4.91,10.64-7.95,17.18-9.83-11.57-.69-21.91,7.73-25.63,18.35-3.12-.25-6.33,.41-9.17,1.97-.68,.35-1.33,.75-2,1.14-.14,.09-.28,.18-.42,.26,.03-.23,.05-.45,.09-.68,.06-.36,.12-.73,.2-1.09,3.03-14.73,17.31-23.89,31.33-26.67-15.33-.92-32.11,10.32-33.78,26.27-.12,.97-.18,1.94-.19,2.91,0,.23,.01,.47,.02,.7-3.34,2.08-6.76,3.97-10.82,3.41-.3-.05-.61-.09-.91-.16,.06-1.63,.2-3.24,.43-4.85,2.71-19.65,20.48-33.21,39.95-33.48-20.48-3.68-41.17,12.31-42.41,33.22-.11,1.51-.14,3.03-.07,4.53-.27-.1-.54-.22-.8-.34-2.65-1.22-4.52-3.51-7.01-5.29-.94-.72-1.98-1.23-3.07-1.56,.09-.54,.2-1.08,.32-1.63,3.89-19.25,21.72-32.04,40.59-34.58,7.15,.92,14.91,3.17,21.01,8.19,.83,.69,1.45,1.29,1.75,1.57,4.23,3.98,11.8,13.39,17.92,27.49,.12,.25,.21,.49,.32,.74-.54,.19-1.08,.37-1.64,.53-2.24,.62-4.62,.98-7.07,1.7Zm26.16,6.26c-.14,.55-.32,1.07-.56,1.58-.02,.06-.06,.1-.08,.16-1.59-2.59-4.36-5.46-7.1-7.76,5.32,6.08,12.62,19.65-1.27,20.64,0-.03-.01-.08-.01-.11-.07,.01-.14,.02-.21,.02h-.01c.03,.15,.05,.31,.07,.47-.03-.16-.05-.31-.08-.47h.02c.07,0,.14,0,.21-.02-.8-7.25-2.72-14.32-5.39-21.19h0c-.14-.35-.29-.71-.43-1.06-.19-.47-.38-.94-.57-1.42-.04-.07-.07-.12-.09-.19-.19-.48-.41-.97-.64-1.45-3.13-7.18-7.02-14.06-11.16-20.57v-.02c-.11-.18-.23-.35-.35-.51-1.82-2.78-3.84-5.39-5.87-8.01,2.16-.09,4.12,.09,5.91,.47,.09,.02,.18,.04,.26,.06,.84,.2,1.63,.42,2.4,.7,.03,.01,.07,.02,.11,.03,.44,.15,.87,.33,1.29,.52,.37,.16,.72,.33,1.07,.51,3.63,1.84,6.29,4.52,8.2,7.01-2.9-.64-6.4-.93-10.62-.68,.76,.07,1.72,.21,2.81,.41-1.09-.2-2.05-.33-2.81-.4-.16,0-.32,.02-.48,.04,1.42,.07,4.03,.44,7,1.24-.46-.13-.9-.24-1.34-.35,.44,.11,.88,.22,1.34,.34,.68,.19,1.38,.39,2.08,.62,.34,.11,.68,.23,1.03,.35,.61,.21,1.22,.45,1.82,.71,.76,.32,1.5,.65,2.23,1.04,.5,.25,.98,.52,1.45,.84,0,0,.01,0,.01,.02,1.68,1.07,3.13,2.37,4.27,3.87,.15,.18,.28,.36,.41,.55,.09,.12,.18,.25,.26,.37,.28,.44,.55,.89,.78,1.36,.85,1.64,1.4,3.46,1.62,5.44-.08-.09-.17-.18-.27-.28-.67-.67-1.58-1.42-2.61-2.18-.61-.45-1.26-.9-1.92-1.34-.02-.01-.05-.02-.07-.04-.2-.14-.41-.26-.61-.4-1.91-1.21-3.84-2.24-5.11-2.64-.1-.04-.2-.07-.29-.1-.42-.15-.68-.2-.71-.18,1.4,.72,2.94,1.71,4.48,2.89,.67,.5,1.33,1.05,1.98,1.64,5.04,4.47,9.36,10.95,7.58,17.49Z"/></svg>